<?xml version="1.0" standalone="no"?>
<svg viewBox="0 0 200 200" xmlns="http://www.w3.org/2000/svg">
  <path fill="#006060" d="M34,-53.6C45.2,-52.3,56.4,-45.6,57.3,-35.8C58.2,-26,49,-13,45.3,-2.1C41.7,8.8,43.7,17.6,45.3,31.8C46.9,46.1,48.1,65.8,40.5,70.7C32.9,75.7,16.5,65.8,7,53.7C-2.4,41.5,-4.9,27.1,-10.3,20.9C-15.7,14.7,-24,16.7,-32,14.6C-40.1,12.4,-47.8,6.2,-55.9,-4.7C-64,-15.6,-72.4,-31.1,-66.2,-36.4C-60,-41.6,-39.1,-36.6,-25.6,-36.5C-12.1,-36.5,-6.1,-41.5,2.6,-46.1C11.4,-50.7,22.7,-54.9,34,-53.6Z" transform="translate(100 100)" />
</svg>
