<?xml version="1.0" standalone="no"?>
<svg viewBox="0 0 200 200" xmlns="http://www.w3.org/2000/svg">
  <path fill="#006060" d="M19.9,-45.4C22.7,-32.9,19.7,-21.3,24.5,-13.8C29.3,-6.4,42,-3.2,47.9,3.4C53.9,10.1,53.2,20.2,48.7,28.2C44.3,36.3,36.1,42.3,27.3,53.4C18.6,64.5,9.3,80.7,2,77.2C-5.3,73.8,-10.6,50.7,-18.7,39.2C-26.8,27.7,-37.7,27.9,-40.7,23.3C-43.7,18.7,-38.8,9.3,-37.8,0.6C-36.9,-8.2,-39.8,-16.4,-38,-23.1C-36.1,-29.7,-29.6,-34.8,-22.5,-44.8C-15.4,-54.8,-7.7,-69.6,0.4,-70.4C8.6,-71.2,17.2,-57.9,19.9,-45.4Z" transform="translate(100 100)" />
</svg>
