<?xml version="1.0" standalone="no"?>
<svg viewBox="0 0 200 200" xmlns="http://www.w3.org/2000/svg">
  <path fill="#006060" d="M24.3,-37.4C31.5,-37.9,37.4,-31.4,37.5,-24.1C37.7,-16.7,32.1,-8.3,37.2,2.9C42.3,14.2,58.1,28.4,57.4,35C56.8,41.6,39.8,40.6,27.5,44.6C15.2,48.6,7.6,57.6,2.5,53.3C-2.6,49,-5.2,31.2,-10.3,23.1C-15.3,14.9,-22.9,16.2,-25.4,14C-27.9,11.7,-25.4,5.9,-33.6,-4.7C-41.8,-15.3,-60.7,-30.7,-64.7,-44.1C-68.6,-57.5,-57.5,-68.9,-44.2,-64.9C-30.9,-60.9,-15.5,-41.3,-3.5,-35.3C8.5,-29.3,17.1,-36.8,24.3,-37.4Z" transform="translate(100 100)" />
</svg>
