<?xml version="1.0" standalone="no"?>
<svg viewBox="0 0 200 200" xmlns="http://www.w3.org/2000/svg">
  <path fill="#006060" d="M11,-19.5C13.4,-17.6,14.1,-13,26.8,-9.3C39.6,-5.6,64.5,-2.8,75.5,6.4C86.6,15.6,83.9,31.2,75.5,42.5C67.1,53.7,53,60.6,39.5,65.9C26,71.1,13,74.6,3.9,67.9C-5.3,61.2,-10.5,44.2,-19.2,36.2C-27.9,28.2,-40,29.2,-42.9,24.6C-45.7,20.1,-39.3,10,-42,-1.6C-44.7,-13.1,-56.5,-26.3,-58.3,-38.9C-60.1,-51.4,-51.8,-63.4,-40.4,-60.1C-29,-56.7,-14.5,-38.1,-5.1,-29.2C4.3,-20.3,8.6,-21.3,11,-19.5Z" transform="translate(100 100)" />
</svg>
