<?xml version="1.0" standalone="no"?>
<svg viewBox="0 0 200 200" xmlns="http://www.w3.org/2000/svg">
  <path fill="#006060" d="M20.2,-30C32.4,-27.9,52.9,-35.1,64.3,-31.7C75.6,-28.2,77.9,-14.1,74.3,-2.1C70.7,10,61.2,19.9,52.5,28C43.8,36.1,36,42.4,27.3,49.3C18.7,56.3,9.4,64,2.6,59.4C-4.1,54.8,-8.2,38,-10.4,27.4C-12.6,16.7,-12.9,12.2,-20.2,8.6C-27.5,5.1,-41.7,2.5,-51,-5.4C-60.3,-13.3,-64.7,-26.6,-60.1,-34.8C-55.6,-43.1,-42.1,-46.3,-30.6,-48.8C-19,-51.3,-9.5,-53,-2.8,-48.2C4,-43.4,8,-32.1,20.2,-30Z" transform="translate(100 100)" />
</svg>
